<svg xmlns="http://www.w3.org/2000/svg" xml:space="preserve" viewBox="52 30 120 102" width="512" height="512">
  <path d="m79.714 37.924-8.453 10.751c-4.65 5.913-8.48 10.822-8.513 10.907-.054.14 4.246.155 43.478.155h43.538v-1.195c0-3.157-.667-6.243-1.903-8.8-3.137-6.492-10.35-10.903-19.157-11.716-.711-.065-9.648-.102-25.048-.102zm68.975 31.64c-.064-.113-27.149-.095-27.218.018-.032.052-.104.81-.159 1.684-.42 6.71-2.305 14.218-4.966 19.785-.7 1.463-1.372 2.375-2.637 3.578-2.35 2.235-5.34 3.374-10.136 3.863-1.846.188-12.745.346-12.844.187-.03-.05 1.606-6.582 3.637-14.515s3.665-14.458 3.63-14.5-6.484-.064-14.332-.05l-9.621.017a8.85 8.85 0 0 1 2.019 5.625 8.846 8.846 0 0 1-8.846 8.846 9 9 0 0 1-1.543-.136L62.84 94.871c-.778 2.993-1.525 5.873-2.219 8.55a8.846 8.846 0 0 1 8.288 8.828 8.85 8.85 0 0 1-5.511 8.194c3.945.01 10.064.011 19.543.011 26.647 0 28.262-.019 31.288-.358 7.936-.89 14.56-3.611 19.358-7.95 7.764-7.023 12.183-18.453 14.566-37.682.524-4.228.587-4.81.536-4.9m-92.403 50.684-.006.03c0 .03.039.054.233.074z" style="fill:#6a0dad;fill-opacity:1"/>
  <path d="M151.726 69.532c0-.103-.013.7-.537 4.927-2.383 19.228-6.801 30.66-14.565 37.681-4.798 4.34-11.422 7.06-19.359 7.95-3.026.34-4.64.358-31.288.358H75.69c3.914.005 9.455.006 17.293.006 26.647 0 28.262-.019 31.288-.358 7.936-.89 14.56-3.61 19.358-7.95 7.764-7.022 12.183-18.453 14.566-37.682.524-4.227.587-4.81.536-4.9-.032-.057-.16-.04-7.004-.035zm8.079-9.795v-1.195c0-3.157-.667-6.243-1.903-8.8-3.137-6.492-10.35-10.903-19.157-11.716-.667-.061-8.577-.097-22.273-.102 9.373.013 14.725.046 15.269.096 8.806.813 16.02 5.224 19.157 11.716 1.236 2.558 1.692 6.848 1.692 10.005" style="fill:#9b59b6;fill-opacity:1"/>
  <path d="M161.782 69.5s-.015.731-.539 4.959c-2.383 19.229-6.801 30.66-14.565 37.681-4.798 4.34-11.422 7.06-19.359 7.95-3.026.34-4.64.358-31.288.358H85.743c3.914.005 9.455.006 17.293.006 26.648 0 28.262-.019 31.288-.358 7.936-.89 14.56-3.61 19.358-7.95 7.764-7.022 12.183-18.453 14.566-37.681.524-4.228.588-4.811.537-4.901-.033-.057-.159-.07-7.003-.065m8.078-9.762v-1.195c0-3.157-.668-6.243-1.904-8.8-3.137-6.492-10.35-10.903-19.156-11.716-.668-.061-8.577-.097-22.273-.102 9.372.013 14.724.046 15.268.096 8.807.813 16.02 5.224 19.157 11.716 1.236 2.558 1.903 5.643 1.903 8.8v1.196z" style="fill:#d8b0ff;fill-opacity:1"/>
  <circle cx="66.599" cy="74.639" r="6.996" style="fill:#6a0dad;fill-opacity:1;stroke:none;stroke-width:2.43155;stroke-dasharray:none;stroke-opacity:1"/>
  <circle cx="59.447" cy="112.373" r="6.996" style="fill:#6a0dad;fill-opacity:1;stroke:none;stroke-width:2.43155;stroke-dasharray:none;stroke-opacity:1"/>
</svg>
